<svg version="1.1" id="Layer_1" xmlns="http://www.w3.org/2000/svg" xmlns:xlink="http://www.w3.org/1999/xlink" x="0px" y="0px"
	 viewBox="0 0 150 94.8" style="enable-background:new 0 0 150 94.8;" xml:space="preserve">
<style type="text/css">
	.st0{display:none;}
	.st1{display:inline;fill:#152340;}
	.st2{display:inline;fill:#C60018;}
	.st3{fill:#152340;}
	.st4{fill:#C60018;}
</style>
<g>
	<path class="st3" d="M21.7,64.23c-1.21,3.31-4.34,4.74-7.08,5.36c-2.48,0.56-5.08,0.52-7.47-0.37c-2.5-0.93-5.17-2.86-6.38-6.7
		C-1.25,56.07,3.4,51.09,3.4,51.09c4.08-4.8,12.62-5.09,15.93-5.01c0.55,0.01,0.84,0.65,0.5,1.07c-1.36,1.68-3.91,5.1-4.14,7.59
		c-0.33,3.41,0.19,4.06,1.82,5.93c1,1.15,2.48,1.8,3.47,2.13C21.57,63,21.92,63.64,21.7,64.23z"/>
	<circle class="st4" cx="10.54" cy="36.15" r="6.63"/>
	<path class="st3" d="M13.59,26.83c0.02,0,0.05,0,0.07,0.01c6.19,0.51,10.92,5.76,10.92,11.97l0,30.21c0,0.57,0.46,1.04,1.04,1.04
		h16.2c0.61,0,0.94-0.72,0.54-1.18l-2.48-2.87c-0.2-0.23-0.3-0.52-0.3-0.82V38.98c0-5.02-2.69-9.76-7.17-12.04
		c-3.99-2.04-9.99-3.01-18.84-0.3C13.48,26.68,13.49,26.83,13.59,26.83z"/>
	<path class="st3" d="M49.56,13.38L67.11,0.7c0.38-0.28,0.92,0,0.92,0.47v64.62c0,0.5,0.22,0.98,0.6,1.32l2.08,1.8
		c0.36,0.31,0.14,0.9-0.34,0.9H51.26c-0.55,0-0.83-0.67-0.44-1.06l1.97-1.97c0.21-0.21,0.33-0.5,0.33-0.8V20.64l-3.86-5.52
		C48.86,14.56,49,13.78,49.56,13.38z"/>
	<path class="st3" d="M70.48,50.83l7.38-5.63c1.1-0.84,2.67-0.62,3.5,0.49l14.98,20.15c1.22,1.64,0.05,3.96-1.99,3.96H82.09
		c-0.81,0-1.57-0.4-2.04-1.06l-10.1-14.52C69.19,53.13,69.43,51.64,70.48,50.83z"/>
	<path class="st4" d="M81.66,30.61h9.62c1.66,0,2.38,2.1,1.07,3.11l-9.62,7.47c-1.14,0.89-2.81,0.07-2.81-1.37v-7.47
		C79.92,31.38,80.7,30.61,81.66,30.61z"/>
	<g>
		<path class="st3" d="M30.18,92.81h-1.65c-0.19,0-0.34-0.05-0.46-0.14s-0.21-0.22-0.26-0.36l-1.47-3.8h-7.06l-1.47,3.8
			c-0.05,0.13-0.14,0.25-0.26,0.35c-0.12,0.1-0.28,0.15-0.46,0.15h-1.65l6.29-15.72h2.16L30.18,92.81z M19.88,86.98h5.87l-2.47-6.4
			c-0.16-0.4-0.32-0.89-0.47-1.48c-0.08,0.3-0.16,0.58-0.24,0.83c-0.08,0.25-0.15,0.47-0.22,0.66L19.88,86.98z"/>
		<path class="st3" d="M46.29,87.68c0.08,0.19,0.15,0.39,0.22,0.59c0.07-0.2,0.15-0.4,0.23-0.59c0.08-0.19,0.17-0.38,0.27-0.56
			l5.32-9.67c0.1-0.17,0.19-0.27,0.3-0.31c0.1-0.04,0.25-0.05,0.44-0.05h1.57v15.72h-1.87V81.26c0-0.15,0-0.32,0.01-0.49
			c0.01-0.18,0.02-0.35,0.03-0.54l-5.39,9.83c-0.18,0.33-0.44,0.49-0.77,0.49h-0.31c-0.33,0-0.59-0.16-0.77-0.49l-5.51-9.86
			c0.02,0.19,0.04,0.38,0.05,0.56c0.01,0.18,0.02,0.35,0.02,0.5v11.55h-1.87V77.09h1.57c0.19,0,0.34,0.02,0.44,0.05
			c0.1,0.04,0.2,0.14,0.3,0.31l5.43,9.68C46.12,87.31,46.21,87.49,46.29,87.68z"/>
		<path class="st3" d="M67.12,92.81H65V77.09h2.13V92.81z"/>
		<path class="st3" d="M88.17,77.09v1.79h-5.08v13.94h-2.13V78.88h-5.1v-1.79H88.17z"/>
		<path class="st3" d="M98.87,83.98h0.8c0.28,0,0.5-0.03,0.66-0.1c0.17-0.07,0.32-0.19,0.47-0.36l5.23-5.92
			c0.16-0.18,0.32-0.31,0.47-0.39c0.15-0.08,0.34-0.12,0.58-0.12h1.81l-5.99,6.77c-0.15,0.17-0.3,0.31-0.43,0.43
			s-0.28,0.21-0.43,0.29c0.21,0.07,0.38,0.16,0.54,0.3c0.15,0.13,0.31,0.3,0.48,0.49l6.25,7.45h-1.84c-0.14,0-0.26-0.01-0.35-0.03
			c-0.09-0.02-0.18-0.05-0.25-0.09c-0.07-0.04-0.13-0.08-0.19-0.14s-0.12-0.12-0.18-0.19l-5.43-6.24c-0.08-0.09-0.16-0.16-0.22-0.22
			c-0.07-0.06-0.15-0.12-0.24-0.16s-0.2-0.08-0.32-0.09c-0.12-0.02-0.27-0.03-0.44-0.03h-0.97v7.2h-2.12V77.09h2.12V83.98z"/>
		<path class="st3" d="M119.93,83.98h0.8c0.28,0,0.5-0.03,0.66-0.1c0.17-0.07,0.32-0.19,0.47-0.36l5.23-5.92
			c0.16-0.18,0.32-0.31,0.47-0.39c0.15-0.08,0.34-0.12,0.58-0.12h1.81l-5.99,6.77c-0.15,0.17-0.3,0.31-0.43,0.43
			s-0.28,0.21-0.43,0.29c0.21,0.07,0.38,0.16,0.54,0.3c0.15,0.13,0.31,0.3,0.48,0.49l6.25,7.45h-1.84c-0.14,0-0.26-0.01-0.35-0.03
			c-0.09-0.02-0.18-0.05-0.25-0.09c-0.07-0.04-0.13-0.08-0.19-0.14s-0.12-0.12-0.18-0.19l-5.43-6.24c-0.08-0.09-0.16-0.16-0.22-0.22
			c-0.07-0.06-0.15-0.12-0.24-0.16s-0.2-0.08-0.32-0.09c-0.12-0.02-0.27-0.03-0.44-0.03h-0.97v7.2h-2.12V77.09h2.12V83.98z"/>
	</g>
	<path class="st3" d="M102.94,13.26L119.93,1c0.56-0.4,1.33,0,1.33,0.68v64.11c0,0.5,0.22,0.98,0.6,1.32l2.09,1.81
		c0.35,0.31,0.14,0.89-0.33,0.89h-19.02c-0.6,0-0.9-0.72-0.47-1.14l1.89-1.89c0.21-0.21,0.33-0.5,0.33-0.8V20.64l-3.75-5.36
		C102.14,14.63,102.3,13.73,102.94,13.26z"/>
	<path class="st3" d="M123.96,50.64l6.86-5.23c1.25-0.95,3.03-0.7,3.97,0.56l14.38,19.35c1.38,1.86,0.05,4.49-2.26,4.49h-11.42
		c-0.92,0-1.78-0.45-2.31-1.21l-9.82-14.12C122.5,53.25,122.77,51.55,123.96,50.64z"/>
	<path class="st4" d="M135.08,30.61h8.88c1.84,0,2.63,2.32,1.18,3.45l-8.88,6.9c-1.27,0.98-3.11,0.08-3.11-1.52v-6.9
		C133.15,31.47,134.01,30.61,135.08,30.61z"/>
</g>
</svg>
